<svg width="28" height="28" viewBox="0 0 28 28" fill="none" xmlns="http://www.w3.org/2000/svg">
<path d="M14.0013 19.5049C13.1738 20.1347 11.4652 21.6924 11.4652 23.8146C11.4652 25.2156 12.6023 26.3555 14 26.3555C15.3977 26.3555 16.5348 25.2156 16.5348 23.8146C16.5348 21.8047 14.8252 20.174 14.0013 19.5049Z" fill="#FEB95A"/>
<path d="M19.9408 4.87337C19.6334 4.52572 19.1028 4.50467 18.7681 4.81715L14.908 8.41991V0.874951C14.908 0.243366 14.1465 -0.228533 13.5762 0.116436C13.4682 0.181733 10.9029 1.7482 8.31092 4.59288C5.15934 8.05176 3.01291 12.2632 3.01291 16.9862C3.01291 23.0593 7.94173 28 14 28C11.6977 28 9.82462 26.1224 9.82462 23.8145C9.82462 20.0852 13.4454 17.877 13.5995 17.7848C13.8696 17.6233 14.2079 17.6309 14.4706 17.804C14.6219 17.9037 18.1753 20.2872 18.1753 23.8144C18.1754 26.1224 16.3024 28 14 28C20.0583 28 24.9871 23.0593 24.9871 16.9862C24.9871 12.4005 22.9636 8.29019 19.9408 4.87337Z" fill="#FEB95A"/>
</svg>
