<svg width="28" height="28" viewBox="0 0 28 28" fill="none" xmlns="http://www.w3.org/2000/svg">
<path d="M24.904 16.418H15.8219C15.0194 16.418 14.3664 15.7651 14.3664 14.9626V14.8409C14.3664 14.0384 15.0194 13.3855 15.8219 13.3855H24.3751C25.0582 13.3855 25.6604 12.9744 25.9092 12.3383L27.7236 7.70085C28.1568 6.59348 28.0153 5.34594 27.3448 4.36375C26.6744 3.38162 25.5643 2.79526 24.3751 2.79526C23.186 2.79526 22.0759 3.38162 21.4054 4.36375C20.735 5.34594 20.5934 6.59342 21.0267 7.70085L22.6088 11.7448H15.8219C14.1147 11.7448 12.7258 13.1337 12.7258 14.8409V14.9626C12.7258 16.6698 14.1147 18.0587 15.8219 18.0587H24.9039C25.7065 18.0587 26.3594 18.7116 26.3594 19.5141C26.3594 20.3167 25.7065 20.9696 24.9039 20.9696H11.3192C11.0577 20.2911 10.4679 19.6902 9.59543 19.2298C9.25057 19.0478 8.86956 18.8934 8.46263 18.7674L10.4253 13.7509C11.032 12.2002 10.8337 10.4533 9.8949 9.07799C8.95613 7.7027 7.40153 6.88157 5.7364 6.88157C4.07122 6.88157 2.51661 7.70265 1.5779 9.07799C0.639079 10.4533 0.440837 12.2002 1.04754 13.7509L3.01017 18.7674C2.60324 18.8934 2.22223 19.0478 1.87737 19.2298C0.666697 19.8687 0 20.7779 0 21.7899C0 22.8019 0.666697 23.7111 1.87732 24.35C2.92174 24.9012 4.29221 25.2048 5.73635 25.2048C7.18048 25.2048 8.55101 24.9012 9.59538 24.35C10.4678 23.8895 11.0577 23.2887 11.3192 22.6102H24.9039C26.6111 22.6102 28 21.2213 28 19.5141C28 17.807 26.6112 16.418 24.904 16.418ZM8.82964 22.899C8.0288 23.3217 6.9013 23.5641 5.73635 23.5641C4.57139 23.5641 3.4439 23.3217 2.64305 22.899C2.0154 22.5678 1.64063 22.1531 1.64063 21.7899C1.64063 21.4267 2.0154 21.012 2.64311 20.6808C2.92819 20.5303 3.25528 20.4031 3.6102 20.3011L3.80281 20.7935C4.11645 21.5953 4.8754 22.1133 5.73635 22.1133C6.59729 22.1133 7.35625 21.5953 7.66988 20.7935L7.86249 20.3011C8.21736 20.4031 8.54445 20.5303 8.82959 20.6808C9.4574 21.0121 9.83212 21.4267 9.83212 21.7899C9.83212 22.1531 9.45735 22.5678 8.82964 22.899Z" fill="#F2C8ED"/>
</svg>
