<svg width="20" height="20" viewBox="0 0 20 20" fill="none" xmlns="http://www.w3.org/2000/svg">
<g clip-path="url(#clip0_26_317)">
<path d="M19.4792 2.74231L17.1991 0.462189C16.5308 -0.206146 15.4433 -0.206146 14.7749 0.462189L13.8767 1.36063L13.79 1.2738C13.1216 0.605469 12.0342 0.605469 11.3658 1.2738L10.3845 2.25525C10.0607 2.57904 9.88236 3.00949 9.88236 3.46726C9.88236 3.92517 10.0607 4.35562 10.3845 4.67942L11.1205 5.41535L5.43488 11.1009L4.69879 10.365C4.375 10.0412 3.9447 9.86283 3.48679 9.86283C3.02902 9.86283 2.59857 10.0412 2.27478 10.365L1.29334 11.3463C0.625 12.0146 0.625 13.1021 1.29334 13.7705L1.38016 13.8571L0.48172 14.7556C-0.186615 15.4239 -0.186615 16.5112 0.48172 17.1796L2.76184 19.4597C3.09601 19.7939 3.53485 19.9609 3.97385 19.9609C4.41284 19.9609 4.85169 19.7939 5.18585 19.4597L6.08429 18.5613L6.17096 18.6479C6.50513 18.9821 6.94413 19.1492 7.38297 19.1492C7.82196 19.1492 8.26081 18.9821 8.59497 18.6479L9.57642 17.6666C9.90021 17.3428 10.0784 16.9124 10.0784 16.4545C10.0784 15.9967 9.90021 15.5663 9.57642 15.2425L8.84034 14.5064L14.5259 8.8208L15.262 9.55689C15.5858 9.88068 16.0162 10.0589 16.474 10.0589C16.9319 10.0589 17.3624 9.88068 17.686 9.55689L18.6675 8.5756C19.3358 7.90726 19.3358 6.81977 18.6675 6.15143L18.5808 6.06476L19.4792 5.16632C20.1476 4.49799 20.1476 3.41065 19.4792 2.74231ZM4.3779 18.6517C4.15512 18.8744 3.79257 18.8744 3.5698 18.6517L1.28967 16.3716C1.0669 16.1487 1.0669 15.7863 1.28967 15.5635L2.18811 14.6652L5.27634 17.7533L4.3779 18.6517ZM8.76847 16.8585L7.78702 17.84C7.56424 18.0628 7.20169 18.0628 6.97892 17.84L2.10144 12.9623C1.87866 12.7396 1.87866 12.3772 2.10144 12.1544L3.08289 11.1729C3.19077 11.0651 3.3342 11.0056 3.48679 11.0056C3.63953 11.0056 3.78296 11.0651 3.89084 11.1729L8.76847 16.0506C8.87635 16.1585 8.93586 16.3019 8.93586 16.4546C8.9357 16.6072 8.87635 16.7506 8.76847 16.8585ZM8.03238 13.6984L6.24298 11.909L11.9286 6.22345L13.718 8.01285L8.03238 13.6984ZM17.8595 7.76749L16.8781 8.74894C16.7702 8.85682 16.6266 8.91617 16.474 8.91617C16.3214 8.91617 16.178 8.85682 16.07 8.74894L11.1925 3.87131C11.0846 3.76343 11.0251 3.62 11.0251 3.46726C11.0251 3.31467 11.0846 3.17124 11.1925 3.06336L12.1738 2.08191C12.2852 1.97052 12.4315 1.91483 12.5778 1.91483C12.7242 1.91483 12.8705 1.97052 12.9819 2.08191L17.8595 6.95954C18.0823 7.18232 18.0823 7.54471 17.8595 7.76749ZM18.6711 4.35837L17.7728 5.25666L14.6846 2.16858L15.583 1.27014C15.8058 1.04736 16.1682 1.04736 16.391 1.27014L18.6711 3.55026C18.8939 3.77304 18.8939 4.13559 18.6711 4.35837Z" fill="#87888C"/>
</g>
<defs>
<clipPath id="clip0_26_317">
<rect width="19.9609" height="20" fill="white"/>
</clipPath>
</defs>
</svg>
