<svg width="18" height="18" viewBox="0 0 18 18" fill="none" xmlns="http://www.w3.org/2000/svg">
<path d="M7.94466 0.9576L7.94546 0.957536C9.55336 0.829358 11.1623 1.1978 12.5594 2.01479C13.9567 2.83183 15.0768 4.05928 15.7704 5.53565C16.4641 7.01209 16.6983 8.66721 16.4416 10.2817C16.1849 11.8962 15.4495 13.393 14.3339 14.5742C13.2184 15.7553 11.7754 16.5653 10.1962 16.898C8.61713 17.2307 6.97526 17.0709 5.48757 16.4392C3.99981 15.8075 2.73564 14.7335 1.86321 13.358C0.990719 11.9825 0.551446 10.3708 0.604264 8.73633L0.604321 8.73435C0.60602 8.67578 0.630673 8.62172 0.670663 8.58359C0.710424 8.54567 0.762042 8.52641 0.813927 8.52795C0.865832 8.52949 0.916483 8.55181 0.954221 8.59228C0.992017 8.63281 1.01349 8.68817 1.01199 8.74649C0.953487 10.5464 1.526 12.3101 2.62969 13.7258C3.73379 15.1422 5.29872 16.1194 7.04858 16.4829C8.79853 16.8465 10.619 16.5725 12.1877 15.7101C13.7562 14.8478 14.9712 13.4533 15.6193 11.7746C16.2674 10.096 16.3076 8.24007 15.7329 6.5345C15.1582 4.82883 14.005 3.38202 12.4755 2.45113C10.9459 1.52016 9.1391 1.16571 7.375 1.45139C5.61097 1.73706 4.00502 2.64407 2.84045 4.01029L2.83559 4.01598L2.83088 4.0218L2.61231 4.29157L1.82016 5.26929H3.0785H5.06877L5.1317 5.27365C5.17418 5.28219 5.21395 5.30488 5.24423 5.33981C5.27761 5.37833 5.29686 5.42895 5.29686 5.48239C5.29686 5.53584 5.27761 5.58645 5.24423 5.62497C5.21441 5.65938 5.17539 5.6819 5.13364 5.69074L5.07174 5.69442H1.35955L1.29963 5.69085C1.26283 5.68269 1.2282 5.66385 1.20019 5.63549C1.17121 5.60614 1.15084 5.56803 1.14251 5.52577L1.13814 5.46151V1.1687L1.14248 1.10547C1.1508 1.06316 1.17118 1.025 1.20019 0.995614C1.2282 0.967247 1.26284 0.948413 1.29964 0.940245L1.34172 0.937742L1.38379 0.940245C1.42059 0.948413 1.45523 0.967247 1.48324 0.995614C1.51225 1.025 1.53264 1.06316 1.54095 1.10547L1.54528 1.16855L1.54422 3.26378L1.5434 4.8675L2.59667 3.65815C3.96492 2.08714 5.88379 1.11911 7.94466 0.9576ZM8.16126 5.3293C8.18927 5.30094 8.2239 5.2821 8.2607 5.27393L8.30822 5.27111L8.34294 5.27352C8.38045 5.28145 8.41581 5.30044 8.44431 5.3293C8.47332 5.35868 8.4937 5.39684 8.50202 5.43916L8.50635 5.50238V8.99972V9.59938L9.10601 9.59972L10.9604 9.6008L11.0215 9.60503C11.0634 9.6139 11.1025 9.63657 11.1324 9.67119C11.1656 9.70966 11.1847 9.76012 11.1847 9.81337C11.1847 9.86663 11.1656 9.91708 11.1324 9.95556C11.1025 9.99018 11.0634 10.0128 11.0215 10.0217L10.9606 10.0259H8.32357L8.26256 10.0217C8.22506 10.0138 8.18972 9.99484 8.16122 9.96602C8.13234 9.93682 8.112 9.89892 8.10356 9.85688L8.09921 9.79215V5.5024L8.10355 5.43916C8.11186 5.39684 8.13225 5.35868 8.16126 5.3293L7.73431 4.90774L8.16126 5.3293Z" fill="#87888C" stroke="#87888C" stroke-width="1.2"/>
</svg>
