<svg width="20" height="20" viewBox="0 0 20 20" fill="none" xmlns="http://www.w3.org/2000/svg">
<path d="M18.5714 16.8782V10.2526C18.5715 9.79161 18.4763 9.33549 18.2916 8.91215C18.1069 8.48881 17.8367 8.10717 17.4974 7.79061L11.1777 1.89139C10.8594 1.59417 10.438 1.42856 10 1.42856C9.562 1.42856 9.14059 1.59417 8.8223 1.89139L2.50259 7.79061C2.16335 8.10717 1.89312 8.48881 1.70844 8.91215C1.52377 9.33549 1.42854 9.79161 1.42859 10.2526V16.8782C1.42859 17.3273 1.6092 17.7579 1.93069 18.0755C2.25218 18.393 2.68822 18.5714 3.14287 18.5714H16.8572C17.3118 18.5714 17.7479 18.393 18.0693 18.0755C18.3908 17.7579 18.5714 17.3273 18.5714 16.8782Z" stroke="#171821" stroke-width="1.2" stroke-linecap="round" stroke-linejoin="round"/>
</svg>
