<svg width="20" height="20" viewBox="0 0 20 20" fill="none" xmlns="http://www.w3.org/2000/svg">
<g clip-path="url(#clip0_26_321)">
<path d="M18.5483 7.44583L17.5729 7.28043C17.4861 7.03873 17.388 6.80161 17.2795 6.57104L17.8538 5.76752C18.3536 5.06546 18.2733 4.11728 17.6649 3.51486L16.4929 2.34268C16.1616 2.01141 15.7225 1.82892 15.2565 1.82892C14.8895 1.82892 14.5386 1.94199 14.2441 2.15393L13.4375 2.72842C13.188 2.61047 12.9349 2.50626 12.6801 2.41623L12.5188 1.46057C12.3769 0.614166 11.6508 0 10.7924 0H9.1365C8.2782 0 7.55218 0.614166 7.41058 1.45889L7.24106 2.45193C7.00165 2.53937 6.76559 2.6387 6.53442 2.74963L5.74249 2.17926C5.44556 1.96548 5.09323 1.85257 4.72351 1.85257C4.25293 1.85257 3.81363 2.03537 3.48602 2.3674L2.31125 3.53836C1.70456 4.14505 1.62506 5.09247 2.12234 5.79102L2.70599 6.61102C2.59842 6.8425 2.50168 7.08069 2.41623 7.32376L1.46042 7.48505C0.614166 7.62711 0 8.35312 0 9.21143V10.8673C0 11.7256 0.614166 12.4516 1.45889 12.5934L2.45193 12.7628C2.53937 13.0023 2.63885 13.2385 2.74963 13.4695L2.1814 14.2599C1.68167 14.962 1.76193 15.9103 2.3703 16.5126L3.54233 17.6848C3.8736 18.0161 4.31274 18.1985 4.77875 18.1985C5.14572 18.1985 5.49667 18.0855 5.79102 17.8737L6.61102 17.29C6.82648 17.3901 7.04987 17.4818 7.2792 17.5644L7.44171 18.5396C7.58377 19.3858 8.30978 20 9.16809 20H10.8278C11.6861 20 12.4123 19.3858 12.554 18.5406L12.7194 17.5652C12.9611 17.4783 13.1982 17.3802 13.4288 17.2717L14.2297 17.8442C14.5267 18.058 14.879 18.1711 15.2487 18.1711C15.7146 18.1711 16.1537 17.9886 16.485 17.6573L17.657 16.4851C18.2639 15.8784 18.3432 14.931 17.8459 14.2325L17.271 13.4251C17.3824 13.1892 17.4808 12.9523 17.5655 12.7167L18.5394 12.5543C19.3857 12.4123 19.9998 11.6862 19.9998 10.8279V9.17542C20.0095 8.31619 19.3997 7.58926 18.5483 7.44583ZM18.828 10.8279C18.828 11.1116 18.625 11.3516 18.3461 11.3985L17.0543 11.6138C16.8159 11.6534 16.6237 11.8216 16.5521 12.0528C16.4374 12.4246 16.2798 12.8047 16.084 13.1819C15.9732 13.3946 15.9909 13.6481 16.1301 13.8431L16.8913 14.9121C17.0555 15.1428 17.0291 15.4559 16.8285 15.6566L15.6564 16.8286C15.5449 16.9402 15.4039 16.9992 15.2487 16.9992C15.1263 16.9992 15.0108 16.9626 14.9129 16.8921L13.8484 16.1313C13.6526 15.9908 13.3981 15.9731 13.1844 16.0849C12.8264 16.2723 12.446 16.4299 12.0537 16.553C11.8248 16.6248 11.6577 16.8164 11.6179 17.0523L11.3985 18.3455C11.3516 18.6252 11.1116 18.8281 10.8278 18.8281H9.16809C8.88428 18.8281 8.64441 18.6252 8.59756 18.3463L8.38226 17.0544C8.34289 16.8176 8.17627 16.6257 7.94739 16.5533C7.56073 16.4313 7.19253 16.2799 6.85272 16.1034C6.7601 16.0553 6.65985 16.0316 6.56006 16.0316C6.43097 16.0316 6.30249 16.0713 6.19247 16.1496L5.10895 16.9208C5.01129 16.9911 4.90021 17.0267 4.77875 17.0267C4.62357 17.0267 4.48257 16.9678 4.37103 16.8561L3.19687 15.6821C2.99652 15.4837 2.97104 15.1715 3.13446 14.9419L3.89114 13.8893C4.03351 13.6917 4.0509 13.4354 3.93616 13.2198C3.74374 12.8589 3.58429 12.4805 3.46207 12.0949C3.38974 11.8675 3.19885 11.7014 2.96387 11.6612L1.65436 11.438C1.37482 11.391 1.17187 11.151 1.17187 10.8673V9.21143C1.17187 8.92776 1.37482 8.68774 1.65482 8.64075L2.93076 8.42545C3.16925 8.38531 3.36136 8.21671 3.43231 7.98477C3.5527 7.59079 3.70758 7.20978 3.89267 6.85272C4.00284 6.64047 3.98514 6.38763 3.84644 6.19247L3.07709 5.11154C2.91275 4.88083 2.93915 4.56772 3.13919 4.36768L4.31519 3.19565L4.31946 3.19122C4.4252 3.08365 4.56863 3.02444 4.72351 3.02444C4.84589 3.02444 4.96155 3.06107 5.05768 3.13034L6.11481 3.8913C6.31271 4.03381 6.56937 4.0509 6.78421 3.93616C7.14508 3.74374 7.5235 3.58429 7.90863 3.46222C8.13599 3.39005 8.30215 3.19946 8.34259 2.96387L8.56598 1.65436C8.61282 1.37482 8.85284 1.17188 9.13666 1.17188H10.7925C11.0762 1.17188 11.3162 1.37482 11.3632 1.65482L11.5785 2.93121C11.6188 3.16986 11.7877 3.36182 12.0198 3.43262C12.4155 3.55286 12.8101 3.71521 13.1929 3.91541C13.4056 4.02649 13.6591 4.00909 13.855 3.86978L14.9265 3.10669C15.024 3.03635 15.135 3.00079 15.2567 3.00079C15.4117 3.00079 15.5527 3.05969 15.6644 3.17139L16.8384 4.3454C17.0387 4.54376 17.0644 4.85596 16.8999 5.08682L16.1383 6.15234C15.9985 6.34827 15.9811 6.60248 16.0927 6.81549C16.2802 7.17346 16.4377 7.55386 16.561 7.94632C16.6328 8.1752 16.8243 8.34213 17.0602 8.38196L18.3524 8.60123L18.3534 8.60138C18.6322 8.64822 18.8319 8.88474 18.828 9.16382V10.8279Z" fill="#87888C"/>
<path d="M10 6.11145C7.85583 6.11145 6.11145 7.85583 6.11145 10C6.11145 12.1442 7.85583 13.8885 10 13.8885C12.1442 13.8885 13.8885 12.1442 13.8885 10C13.8885 7.85583 12.1442 6.11145 10 6.11145ZM10 12.7167C8.50204 12.7167 7.28333 11.498 7.28333 10C7.28333 8.50204 8.50204 7.28333 10 7.28333C11.498 7.28333 12.7167 8.50204 12.7167 10C12.7167 11.498 11.498 12.7167 10 12.7167Z" fill="#87888C"/>
</g>
<defs>
<clipPath id="clip0_26_321">
<rect width="20" height="20" fill="white"/>
</clipPath>
</defs>
</svg>
