<svg width="19" height="20" viewBox="0 0 19 20" fill="none" xmlns="http://www.w3.org/2000/svg">
<path d="M11.2857 5.14395V3.3707C11.2857 3.10207 11.2365 2.83636 11.1412 2.59036C11.046 2.34437 10.9067 2.12344 10.7322 1.94155C10.5577 1.75965 10.3518 1.62074 10.1275 1.5336C9.90324 1.44646 9.66543 1.41298 9.42914 1.43528L2.572 2.08204C2.14347 2.12247 1.74401 2.3439 1.45283 2.70239C1.16165 3.06089 1.00002 3.53028 1 4.01746V15.9816C1.00002 16.4688 1.16165 16.9381 1.45283 17.2966C1.74401 17.6551 2.14347 17.8766 2.572 17.917L9.42914 18.5647C9.6655 18.587 9.90338 18.5535 10.1277 18.4663C10.3521 18.3791 10.558 18.2401 10.7325 18.0581C10.907 17.8761 11.0463 17.6551 11.1415 17.409C11.2367 17.1629 11.2858 16.897 11.2857 16.6283V14.8551M10.4286 9.99952H18.1429H10.4286ZM18.1429 9.99952L15.286 6.11507L18.1429 9.99952ZM18.1429 9.99952L15.286 13.884L18.1429 9.99952Z" stroke="#87888C" stroke-width="1.2" stroke-linecap="round" stroke-linejoin="round"/>
</svg>
