<svg width="28" height="28" viewBox="0 0 28 28" fill="none" xmlns="http://www.w3.org/2000/svg">
<g clip-path="url(#clip0_26_363)">
<path d="M17.2812 13.0703H14C13.6682 13.0703 13.3691 12.8704 13.2421 12.5639C13.1152 12.2574 13.1854 11.9045 13.42 11.6699L15.3009 9.78906H14C13.547 9.78906 13.1797 9.42178 13.1797 8.96875C13.1797 8.51572 13.547 8.14844 14 8.14844H17.2812C17.613 8.14844 17.9121 8.34832 18.0391 8.65484C18.166 8.96137 18.0959 9.31421 17.8613 9.54882L15.9804 11.4297H17.2812C17.7343 11.4297 18.1016 11.797 18.1016 12.25C18.1016 12.703 17.7343 13.0703 17.2812 13.0703Z" fill="#20AEF3"/>
<path d="M23.8438 6.50781H20.5625C20.2307 6.50781 19.9316 6.30793 19.8046 6.00141C19.6777 5.69488 19.7479 5.34204 19.9825 5.10743L21.8634 3.22656H20.5625C20.1095 3.22656 19.7422 2.85928 19.7422 2.40625C19.7422 1.95322 20.1095 1.58594 20.5625 1.58594H23.8438C24.1755 1.58594 24.4746 1.78582 24.6016 2.09234C24.7285 2.39887 24.6584 2.75171 24.4238 2.98632L22.5429 4.86719H23.8438C24.2968 4.86719 24.6641 5.23447 24.6641 5.6875C24.6641 6.14053 24.2968 6.50781 23.8438 6.50781Z" fill="#20AEF3"/>
<path d="M14 28C6.28037 28 0 21.7071 0 13.9721C0 10.4004 1.34356 7.00367 3.78328 4.40771C6.30394 1.72556 9.79136 0.160459 13.6032 0.000717183C13.9344 -0.0130641 14.24 0.172764 14.3803 0.472178C14.5392 0.811131 14.4732 1.25755 14.0356 1.54099C13.0779 2.16153 9.95312 4.53704 9.95312 9.05019C9.95312 13.9956 13.9765 18.0189 18.9219 18.0189C23.2938 18.0189 25.6403 15.1759 26.4463 13.9536C26.841 13.3547 27.3666 13.5161 27.5279 13.5918C27.8273 13.7321 28.0131 14.0385 27.9992 14.3688C27.8397 18.177 26.2714 21.6675 23.5835 24.1974C20.9783 26.6496 17.5748 28 14 28Z" fill="#20AEF3"/>
</g>
<defs>
<clipPath id="clip0_26_363">
<rect width="28" height="28" fill="white"/>
</clipPath>
</defs>
</svg>
