<svg width="28" height="28" viewBox="0 0 28 28" fill="none" xmlns="http://www.w3.org/2000/svg">
<g clip-path="url(#clip0_26_345)">
<path d="M12.0953 21.4799C11.9618 20.9648 11.6169 20.5238 11.1489 20.2701C10.6802 20.0161 10.1216 19.9677 9.61608 20.1373L6.23711 21.2712C5.7319 21.4408 5.31568 21.8164 5.09523 22.3016C4.87479 22.7869 4.86576 23.3473 5.0704 23.8394C5.25443 24.2818 5.42861 24.6983 5.589 25.0803C6.16011 26.4402 7.4982 27.2773 8.90821 27.2773C9.30934 27.2784 9.72229 27.2065 10.1155 27.0668C11.9448 26.4529 12.9583 24.5224 12.4228 22.6717C12.3038 22.2604 12.1937 21.8595 12.0953 21.4799Z" fill="#A9DFD8"/>
<path d="M10.7446 15.9352C10.7242 15.4122 10.7252 14.921 10.7261 14.4461C10.7284 13.2661 10.7308 12.046 10.4067 10.3272C9.89723 7.62616 8.61503 5.49652 6.88877 4.48442C5.7937 3.84233 4.61147 3.70545 3.47014 4.08848C1.93895 4.60232 0.816375 5.78248 0.309312 7.41151C-0.208414 9.07461 -0.0742659 11.1687 0.697101 13.4673C1.09949 14.6662 1.69766 16.2744 2.47505 18.2473C2.77298 19.0034 3.49699 19.4697 4.26852 19.4696C4.47212 19.4696 4.67917 19.4371 4.88244 19.3689L9.43168 17.8422C10.2379 17.5716 10.7778 16.7874 10.7446 15.9352Z" fill="#A9DFD8"/>
<path d="M21.763 18.1179C21.7629 18.1179 21.7629 18.1179 21.763 18.1179L18.3839 16.9839C17.8783 16.8142 17.3198 16.8627 16.8512 17.1167C16.3831 17.3704 16.0382 17.8113 15.9047 18.3265C15.8064 18.7058 15.6962 19.1068 15.5772 19.5183C15.0417 21.369 16.0552 23.2995 17.8843 23.9134C18.2777 24.0532 18.6904 24.1251 19.0918 24.1239C20.5016 24.1239 21.8399 23.2868 22.4109 21.927C22.5713 21.5451 22.7455 21.1285 22.9296 20.686C23.1343 20.194 23.1252 19.6335 22.9048 19.1483C22.6844 18.663 22.2682 18.2874 21.763 18.1179Z" fill="#A9DFD8"/>
<path d="M27.6907 4.25807C27.1836 2.62904 26.0611 1.44894 24.5299 0.935038C23.3884 0.552006 22.2064 0.688889 21.1112 1.33098C19.385 2.34308 18.1028 4.47272 17.5933 7.17379C17.2691 8.89251 17.2715 10.1126 17.2739 11.2925C17.2748 11.7675 17.2757 12.2587 17.2554 12.7818C17.2222 13.634 17.7621 14.4182 18.5683 14.6888L23.1176 16.2155C23.3209 16.2837 23.5278 16.3162 23.7314 16.3162C24.5029 16.3162 25.2271 15.8499 25.525 15.0939C26.3021 13.1217 26.9002 11.5134 27.3028 10.3138C28.0743 8.01521 28.2084 5.92117 27.6907 4.25807Z" fill="#A9DFD8"/>
</g>
<defs>
<clipPath id="clip0_26_345">
<rect width="28" height="28" fill="white"/>
</clipPath>
</defs>
</svg>
